<svg xmlns="http://www.w3.org/2000/svg" viewBox="0 0 800 690.21"><path d="M761.26,0H38.74A38.73,38.73,0,0,0,0,38.74V492a38.73,38.73,0,0,0,38.74,38.74H309v87.79H203.81a35.84,35.84,0,1,0,0,71.67H596.19a35.84,35.84,0,1,0,0-71.67H491V530.75H761.26A38.73,38.73,0,0,0,800,492V38.74A38.73,38.73,0,0,0,761.26,0ZM741.89,472.64H58.11V58.11H741.89Z" fill="#333"/><path d="M58.11 58.11h683.78v414.53H58.11z" fill="#fff"/><g fill-rule="evenodd"><path d="M382,370.81l-18,31.45,18,31.44H418l18-31.44-18-31.45H382m-7.12,75.05-25.16-43.6,25.16-43.6h50.3l25.16,43.6-25.16,43.6h-50.3M475.46,209.41l18,31.44h36l18-31.44-18-31.44h-36l-18,31.44m10.9,43.6-25.15-43.6,25.15-43.6h50.31l25.15,43.6L536.67,253H486.36m-233.51-43.6,18,31.44h36.05l18-31.44-18-31.44H270.88l-18,31.44m10.9,43.6-25.15-43.6,25.15-43.6h50.31l25.15,43.6L314.06,253H263.75" fill="#2786eb"/><path d="M254.11 398.06l-34.8-60.37 34.8-59.95h69.59l34.38 59.95-34.38 60.37h-69.59m222.61 0l-34.8-60.37 34.8-59.95h69.59l34.38 59.95-34.38 60.37h-69.59M365.2 205.22l-34.37-60.37L365.2 84.9h69.6l34.79 59.95-34.79 60.37h-69.6" fill="#fe6c2b"/><path d="M370.23,325.54l-30.18-52,30.18-52h59.95l29.77,52-29.77,52H370.23" fill="#fff"/></g></svg>