<svg xmlns="http://www.w3.org/2000/svg" viewBox="0 0 86.2 86.1"><path d="M38.8 68.2l-4.3 7.5 4.3 7.5h8.6l4.3-7.5-4.3-7.5h-8.6m-1.7 17.9l-6-10.4 6-10.4h12l6 10.4-6 10.4h-12m24-56.4l4.3 7.5H74l4.3-7.5-4.3-7.5h-8.6l-4.3 7.5m2.6 10.4l-6-10.4 6-10.4h12l6 10.4-6 10.4h-12M8 29.7l4.3 7.5h8.6l4.3-7.5-4.3-7.5h-8.6L8 29.7m2.6 10.4l-6-10.4 6-10.4h12l6 10.4-6 10.4h-12" fill="#2786eb" fill-rule="evenodd"/><path d="M8.3 74.7L0 60.3 8.3 46h16.6l8.2 14.3-8.2 14.4H8.3m53.1 0l-8.3-14.4L61.4 46H78l8.2 14.3L78 74.7H61.4m-26.6-46l-8.2-14.4L34.8 0h16.6l8.3 14.3-8.3 14.4H34.8" fill-rule="evenodd" fill="#fe6c2b"/><path d="M36 57.4L28.8 45 36 32.6h14.3L57.4 45l-7.1 12.4H36" fill-rule="evenodd" fill="#fff"/></svg>
